<?xml version="1.0"?>
<svg xmlns="http://www.w3.org/2000/svg" xmlns:xlink="http://www.w3.org/1999/xlink" xmlns:svgjs="http://svgjs.com/svgjs" version="1.1" width="512" height="512" x="0" y="0" viewBox="0 0 512 512" style="enable-background:new 0 0 512 512" xml:space="preserve" class=""><g>
<g xmlns="http://www.w3.org/2000/svg">
	<g>
		<path d="M256.001,142.93c-36.083,0-65.438,29.356-65.438,65.438s29.355,65.438,65.438,65.438    c36.083,0,65.438-29.356,65.438-65.438S292.083,142.93,256.001,142.93z" fill="#0c72fb" data-original="#000000" style=""/>
	</g>
</g>
<g xmlns="http://www.w3.org/2000/svg">
	<g>
		<path d="M409.124,63.426C368.224,22.525,313.843,0,256.001,0S143.778,22.525,102.878,63.426    c-40.902,40.902-63.427,95.282-63.427,153.123c0,117.013,110.64,214.338,170.08,266.625c8.259,7.266,15.392,13.54,21.073,18.847    C237.725,508.675,246.861,512,256,512c9.138,0,18.276-3.327,25.396-9.977c5.683-5.308,12.815-11.582,21.074-18.848    c59.44-52.287,170.08-149.612,170.08-266.625C472.55,158.708,450.025,104.328,409.124,63.426z M256.001,303.797    c-52.621,0-95.43-42.809-95.43-95.43c0-52.621,42.809-95.43,95.43-95.43s95.43,42.809,95.43,95.43    C351.431,260.988,308.621,303.797,256.001,303.797z" fill="#0c72fb" data-original="#000000" style=""/>
	</g>
</g>
<g xmlns="http://www.w3.org/2000/svg">
</g>
<g xmlns="http://www.w3.org/2000/svg">
</g>
<g xmlns="http://www.w3.org/2000/svg">
</g>
<g xmlns="http://www.w3.org/2000/svg">
</g>
<g xmlns="http://www.w3.org/2000/svg">
</g>
<g xmlns="http://www.w3.org/2000/svg">
</g>
<g xmlns="http://www.w3.org/2000/svg">
</g>
<g xmlns="http://www.w3.org/2000/svg">
</g>
<g xmlns="http://www.w3.org/2000/svg">
</g>
<g xmlns="http://www.w3.org/2000/svg">
</g>
<g xmlns="http://www.w3.org/2000/svg">
</g>
<g xmlns="http://www.w3.org/2000/svg">
</g>
<g xmlns="http://www.w3.org/2000/svg">
</g>
<g xmlns="http://www.w3.org/2000/svg">
</g>
<g xmlns="http://www.w3.org/2000/svg">
</g>
</g></svg>
